REM DIRINDEX 1\2,1\3\7,1\3\8,1\4\9,1\4\10,1\4\11,1\5\12,1\5\13,1\5\14,1\6\15,1\6\16,1\6\17
REM DIRNAME "folder01","folder02","folder03","folder04","folder05","folder06","folder07","folder08","folder09","folder10","folder11","folder12","folder13","folder14","folder15","folder16","folder17"
TITLE ""
FILE "2Q_k_001-010.mp3" MP3
  TRACK 01 AUDIO
    TITLE "2:cjc174_1323"
    INDEX 01 00:00:00
  TRACK 02 AUDIO
    TITLE "0:"
    INDEX 01 00:01:55
  TRACK 03 AUDIO
    TITLE "12:cjc174_1324"
    INDEX 01 00:02:25
  TRACK 04 AUDIO
    TITLE "0:"
    INDEX 01 00:04:65
  TRACK 05 AUDIO
    TITLE "13:cjc174_1325"
    INDEX 01 00:05:39
  TRACK 06 AUDIO
    TITLE "0:"
    INDEX 01 00:07:46
  TRACK 07 AUDIO
    TITLE "14:cjc174_1326"
    INDEX 01 00:08:14
  TRACK 08 AUDIO
    TITLE "14:cjc174_1327"
    INDEX 01 00:10:48
  TRACK 09 AUDIO
    TITLE "0:"
    INDEX 01 00:13:58
  TRACK 10 AUDIO
    TITLE "12:cjc174_1328"
    INDEX 01 00:14:36
  TRACK 11 AUDIO
    TITLE "0:"
    INDEX 01 00:16:13
  TRACK 12 AUDIO
    TITLE "13:cjc174_1329"
    INDEX 01 00:16:60
  TRACK 13 AUDIO
    TITLE "0:"
    INDEX 01 00:18:49
  TRACK 14 AUDIO
    TITLE "14:cjc174_1330"
    INDEX 01 00:19:21
  TRACK 15 AUDIO
    TITLE "14:cjc174_1331"
    INDEX 01 00:21:46
  TRACK 16 AUDIO
    TITLE "0:"
    INDEX 01 00:26:21
  TRACK 17 AUDIO
    TITLE "12:cjc174_1332"
    INDEX 01 00:26:70
  TRACK 18 AUDIO
    TITLE "0:"
    INDEX 01 00:29:10
  TRACK 19 AUDIO
    TITLE "13:cjc174_1333"
    INDEX 01 00:29:55
  TRACK 20 AUDIO
    TITLE "0:"
    INDEX 01 00:32:16
  TRACK 21 AUDIO
    TITLE "14:cjc174_1334"
    INDEX 01 00:32:61
  TRACK 22 AUDIO
    TITLE "0:"
    INDEX 01 00:40:73
  TRACK 23 AUDIO
    TITLE "12:cjc174_1335"
    INDEX 01 00:41:45
  TRACK 24 AUDIO
    TITLE "0:"
    INDEX 01 00:43:65
  TRACK 25 AUDIO
    TITLE "13:cjc174_1336"
    INDEX 01 00:44:33
  TRACK 26 AUDIO
    TITLE "0:"
    INDEX 01 00:46:61
  TRACK 27 AUDIO
    TITLE "14:cjc174_1337"
    INDEX 01 00:47:31
  TRACK 28 AUDIO
    TITLE "14:cjc174_1338"
    INDEX 01 00:52:50
  TRACK 29 AUDIO
    TITLE "0:"
    INDEX 01 00:56:26
  TRACK 30 AUDIO
    TITLE "12:cjc174_1339"
    INDEX 01 00:56:72
  TRACK 31 AUDIO
    TITLE "0:"
    INDEX 01 00:59:05
  TRACK 32 AUDIO
    TITLE "13:cjc174_1340"
    INDEX 01 00:59:52
  TRACK 33 AUDIO
    TITLE "0:"
    INDEX 01 01:01:39
  TRACK 34 AUDIO
    TITLE "14:cjc174_1341"
    INDEX 01 01:02:09
  TRACK 35 AUDIO
    TITLE "14:cjc174_1342"
    INDEX 01 01:07:40
  TRACK 36 AUDIO
    TITLE "0:"
    INDEX 01 01:10:62
  TRACK 37 AUDIO
    TITLE "12:cjc174_1343"
    INDEX 01 01:11:32
  TRACK 38 AUDIO
    TITLE "0:"
    INDEX 01 01:13:27
  TRACK 39 AUDIO
    TITLE "13:cjc174_1344"
    INDEX 01 01:13:68
  TRACK 40 AUDIO
    TITLE "0:"
    INDEX 01 01:16:13
  TRACK 41 AUDIO
    TITLE "14:cjc174_1345"
    INDEX 01 01:16:60
  TRACK 42 AUDIO
    TITLE "14:cjc174_1346"
    INDEX 01 01:19:41
  TRACK 43 AUDIO
    TITLE "0:"
    INDEX 01 01:23:37
  TRACK 44 AUDIO
    TITLE "12:cjc174_1347"
    INDEX 01 01:24:09
  TRACK 45 AUDIO
    TITLE "0:"
    INDEX 01 01:25:69
  TRACK 46 AUDIO
    TITLE "13:cjc174_1348"
    INDEX 01 01:26:39
  TRACK 47 AUDIO
    TITLE "0:"
    INDEX 01 01:28:75
  TRACK 48 AUDIO
    TITLE "14:cjc174_1349"
    INDEX 01 01:29:45
  TRACK 49 AUDIO
    TITLE "14:cjc174_1350"
    INDEX 01 01:32:32
  TRACK 50 AUDIO
    TITLE "0:"
    INDEX 01 01:35:25
  TRACK 51 AUDIO
    TITLE "12:cjc174_1351"
    INDEX 01 01:36:01
  TRACK 52 AUDIO
    TITLE "0:"
    INDEX 01 01:38:43
  TRACK 53 AUDIO
    TITLE "13:cjc174_1352"
    INDEX 01 01:39:13
  TRACK 54 AUDIO
    TITLE "0:"
    INDEX 01 01:41:62
  TRACK 55 AUDIO
    TITLE "14:cjc174_1353"
    INDEX 01 01:42:34
  TRACK 56 AUDIO
    TITLE "14:cjc174_1354"
    INDEX 01 01:45:15
  TRACK 57 AUDIO
    TITLE "0:"
    INDEX 01 01:49:62
  TRACK 58 AUDIO
    TITLE "12:cjc174_1355"
    INDEX 01 01:50:32
  TRACK 59 AUDIO
    TITLE "0:"
    INDEX 01 01:52:37
  TRACK 60 AUDIO
    TITLE "13:cjc174_1356"
    INDEX 01 01:53:07
  TRACK 61 AUDIO
    TITLE "0:"
    INDEX 01 01:56:21
  TRACK 62 AUDIO
    TITLE "14:cjc174_1357"
    INDEX 01 01:56:66
  TRACK 63 AUDIO
    TITLE "14:cjc174_1358"
    INDEX 01 01:59:74
  TRACK 64 AUDIO
    TITLE "0:"
    INDEX 01 02:02:33
  TRACK 65 AUDIO
    TITLE "12:cjc174_1359"
    INDEX 01 02:03:05
  TRACK 66 AUDIO
    TITLE "0:"
    INDEX 01 02:04:56
  TRACK 67 AUDIO
    TITLE "13:cjc174_1360"
    INDEX 01 02:05:28
  TRACK 68 AUDIO
    TITLE "0:"
    INDEX 01 02:07:48
  TRACK 69 AUDIO
    TITLE "14:cjc174_1361"
    INDEX 01 02:08:20
  TRACK 70 AUDIO
    TITLE "14:cjc174_1362"
    INDEX 01 02:10:44
  TRACK 71 AUDIO
    TITLE "0:"
    INDEX 01 02:15:40
